<mxfile host="app.diagrams.net" modified="2024-04-20T14:58:27.279Z" agent="Mozilla/5.0 (X11; Ubuntu; Linux x86_64; rv:125.0) Gecko/20100101 Firefox/125.0" etag="ibhr9AsRWWnXlJ0uuOPA" version="24.2.7" type="github">
  <diagram name="第 1 页" id="IR1yq7qya-Rb1jxSup0e">
    <mxGraphModel dx="1430" dy="797" grid="1" gridSize="10" guides="1" tooltips="1" connect="1" arrows="1" fold="1" page="1" pageScale="1" pageWidth="1169" pageHeight="827" background="#0A0A0A" math="0" shadow="0">
      <root>
        <mxCell id="0" />
        <mxCell id="1" parent="0" />
        <mxCell id="zw7G0OUQbn7pBLj9tLS3-4" value="" style="edgeStyle=orthogonalEdgeStyle;rounded=0;orthogonalLoop=1;jettySize=auto;html=1;" edge="1" parent="1" source="zw7G0OUQbn7pBLj9tLS3-2" target="zw7G0OUQbn7pBLj9tLS3-3">
          <mxGeometry relative="1" as="geometry" />
        </mxCell>
        <mxCell id="zw7G0OUQbn7pBLj9tLS3-5" style="edgeStyle=orthogonalEdgeStyle;rounded=0;orthogonalLoop=1;jettySize=auto;html=1;entryX=0.5;entryY=0;entryDx=0;entryDy=0;strokeColor=#FFFFFF;" edge="1" parent="1" source="zw7G0OUQbn7pBLj9tLS3-2" target="zw7G0OUQbn7pBLj9tLS3-3">
          <mxGeometry relative="1" as="geometry" />
        </mxCell>
        <mxCell id="zw7G0OUQbn7pBLj9tLS3-2" value="&lt;div&gt;&lt;font style=&quot;font-size: 18px;&quot; face=&quot;Times New Roman&quot; color=&quot;#ffffff&quot;&gt;Input Layer&lt;/font&gt;&lt;/div&gt;&lt;div&gt;&lt;font style=&quot;font-size: 18px;&quot; face=&quot;Times New Roman&quot; color=&quot;#ffffff&quot;&gt;(B, S, F)&lt;br&gt;&lt;/font&gt;&lt;/div&gt;" style="rounded=1;whiteSpace=wrap;html=1;fillColor=#000000;strokeWidth=2;strokeColor=#FCFCFC;" vertex="1" parent="1">
          <mxGeometry x="500" y="160" width="120" height="60" as="geometry" />
        </mxCell>
        <mxCell id="zw7G0OUQbn7pBLj9tLS3-7" value="" style="edgeStyle=orthogonalEdgeStyle;rounded=0;orthogonalLoop=1;jettySize=auto;html=1;" edge="1" parent="1" source="zw7G0OUQbn7pBLj9tLS3-3">
          <mxGeometry relative="1" as="geometry">
            <mxPoint x="560" y="340" as="targetPoint" />
          </mxGeometry>
        </mxCell>
        <mxCell id="zw7G0OUQbn7pBLj9tLS3-18" style="edgeStyle=orthogonalEdgeStyle;rounded=0;orthogonalLoop=1;jettySize=auto;html=1;entryX=0;entryY=0.5;entryDx=0;entryDy=0;strokeColor=#FCFCFC;align=center;verticalAlign=middle;fontFamily=Helvetica;fontSize=11;fontColor=default;labelBackgroundColor=default;endArrow=classic;" edge="1" parent="1" source="zw7G0OUQbn7pBLj9tLS3-3" target="zw7G0OUQbn7pBLj9tLS3-11">
          <mxGeometry relative="1" as="geometry" />
        </mxCell>
        <mxCell id="zw7G0OUQbn7pBLj9tLS3-3" value="&lt;div&gt;&lt;font style=&quot;font-size: 18px;&quot; face=&quot;Times New Roman&quot; color=&quot;#ffffff&quot;&gt;LSTM Layer&lt;/font&gt;&lt;/div&gt;&lt;div&gt;&lt;font style=&quot;font-size: 18px;&quot; face=&quot;Times New Roman&quot; color=&quot;#ffffff&quot;&gt;(B, units)&lt;br&gt;&lt;/font&gt;&lt;/div&gt;" style="whiteSpace=wrap;html=1;fillColor=#000000;strokeColor=#FCFCFC;rounded=1;strokeWidth=2;" vertex="1" parent="1">
          <mxGeometry x="420" y="260" width="120" height="60" as="geometry" />
        </mxCell>
        <mxCell id="zw7G0OUQbn7pBLj9tLS3-14" style="edgeStyle=orthogonalEdgeStyle;rounded=0;orthogonalLoop=1;jettySize=auto;html=1;entryX=0.5;entryY=0;entryDx=0;entryDy=0;strokeColor=#FCFCFC;align=center;verticalAlign=middle;fontFamily=Helvetica;fontSize=11;fontColor=default;labelBackgroundColor=default;endArrow=classic;" edge="1" parent="1" source="zw7G0OUQbn7pBLj9tLS3-11" target="zw7G0OUQbn7pBLj9tLS3-13">
          <mxGeometry relative="1" as="geometry" />
        </mxCell>
        <mxCell id="zw7G0OUQbn7pBLj9tLS3-11" value="&lt;div&gt;&lt;font style=&quot;font-size: 18px;&quot; face=&quot;Times New Roman&quot; color=&quot;#ffffff&quot;&gt;Dropout Layer&lt;/font&gt;&lt;/div&gt;&lt;div&gt;&lt;font style=&quot;font-size: 18px;&quot; face=&quot;Times New Roman&quot; color=&quot;#ffffff&quot;&gt;(B, units)&lt;br&gt;&lt;/font&gt;&lt;/div&gt;" style="whiteSpace=wrap;html=1;fillColor=#000000;strokeColor=#FCFCFC;rounded=1;strokeWidth=2;" vertex="1" parent="1">
          <mxGeometry x="585" y="260" width="120" height="60" as="geometry" />
        </mxCell>
        <mxCell id="zw7G0OUQbn7pBLj9tLS3-17" style="edgeStyle=orthogonalEdgeStyle;rounded=0;orthogonalLoop=1;jettySize=auto;html=1;entryX=0.5;entryY=0;entryDx=0;entryDy=0;strokeColor=#FCFCFC;align=center;verticalAlign=middle;fontFamily=Helvetica;fontSize=11;fontColor=default;labelBackgroundColor=default;endArrow=classic;" edge="1" parent="1" source="zw7G0OUQbn7pBLj9tLS3-13" target="zw7G0OUQbn7pBLj9tLS3-15">
          <mxGeometry relative="1" as="geometry" />
        </mxCell>
        <mxCell id="zw7G0OUQbn7pBLj9tLS3-13" value="&lt;div&gt;&lt;font style=&quot;font-size: 18px;&quot; face=&quot;Times New Roman&quot; color=&quot;#ffffff&quot;&gt;Dense Layer&lt;/font&gt;&lt;/div&gt;&lt;div&gt;&lt;font style=&quot;font-size: 18px;&quot; face=&quot;Times New Roman&quot; color=&quot;#ffffff&quot;&gt;(B, H)&lt;br&gt;&lt;/font&gt;&lt;/div&gt;" style="whiteSpace=wrap;html=1;fillColor=#000000;strokeColor=#FCFCFC;rounded=1;strokeWidth=2;" vertex="1" parent="1">
          <mxGeometry x="500" y="360" width="120" height="60" as="geometry" />
        </mxCell>
        <mxCell id="zw7G0OUQbn7pBLj9tLS3-15" value="&lt;div&gt;&lt;font style=&quot;font-size: 18px;&quot; face=&quot;Times New Roman&quot; color=&quot;#ffffff&quot;&gt;Output Layer&lt;/font&gt;&lt;/div&gt;&lt;div&gt;&lt;font style=&quot;font-size: 18px;&quot; face=&quot;Times New Roman&quot; color=&quot;#ffffff&quot;&gt;(B, H)&lt;br&gt;&lt;/font&gt;&lt;/div&gt;" style="whiteSpace=wrap;html=1;fillColor=#000000;strokeColor=#FCFCFC;rounded=1;strokeWidth=2;" vertex="1" parent="1">
          <mxGeometry x="500" y="440" width="120" height="60" as="geometry" />
        </mxCell>
      </root>
    </mxGraphModel>
  </diagram>
</mxfile>
